<svg xmlns="http://www.w3.org/2000/svg" width="800" height="400" viewBox="0 0 800 400">
  <rect width="800" height="400" fill="white"/>
  <text x="25" y="30" font-family="sans-serif" font-size="22" font-weight="bold">Rθ versus fit-window width</text>
  <text x="25" y="52" font-family="sans-serif" font-size="14" fill="#555">Quadratic fit q = az²; shaded region is the longest contiguous block satisfying |b| &lt; 2σb.</text>
  <rect x="367.5" y="45" width="86.3" height="295" fill="#eeeeee"/>
  <line x1="80" y1="340" x2="770" y2="340" stroke="#222"/>
  <line x1="80" y1="45" x2="80" y2="340" stroke="#222"/>
  <polyline fill="none" stroke="#111" stroke-width="2" points="80.0,311.0 108.8,272.1 137.5,238.4 166.2,170.6 195.0,117.7 223.8,111.8 252.5,94.2 281.2,77.2 310.0,82.7 338.8,71.7 367.5,76.6 396.2,73.1 425.0,69.8 453.8,80.6 482.5,96.3 511.2,112.7 540.0,122.8 568.8,135.5 597.5,141.7 626.2,161.6 655.0,178.8 683.8,199.7 712.5,208.5 741.2,227.3 770.0,248.6"/>
  <g fill="#111">
    <circle cx="367.5" cy="76.6" r="5"/><circle cx="396.2" cy="73.1" r="5"/><circle cx="425.0" cy="69.8" r="5"/><circle cx="453.8" cy="80.6" r="5"/>
  </g>
  <text x="352" y="105" font-family="sans-serif" font-size="13">90–105 px</text>
  <text x="70" y="365" font-family="sans-serif" font-size="13">40</text><text x="245" y="365" font-family="sans-serif" font-size="13">70</text><text x="418" y="365" font-family="sans-serif" font-size="13">100</text><text x="590" y="365" font-family="sans-serif" font-size="13">130</text><text x="757" y="365" font-family="sans-serif" font-size="13">160</text>
  <text x="365" y="392" font-family="sans-serif" font-size="14">zmax [px]</text>
  <text x="20" y="220" font-family="sans-serif" font-size="14" transform="rotate(-90 20 220)">Rθ [px]</text>
  <text x="90" y="75" font-family="sans-serif" font-size="13" fill="#555">candidate block: median 118.256 px; SD 0.583 px</text>
</svg>
