<svg xmlns="http://www.w3.org/2000/svg" width="800" height="420" viewBox="0 0 800 420"><style>text{font-family:Arial,sans-serif;fill:#222}.axis{stroke:#333;stroke-width:1}.grid{stroke:#ddd;stroke-width:1}.line{fill:none;stroke-width:2}.pt{stroke:none}</style><text x="400.0" y="24" text-anchor="middle" font-size="18" font-weight="bold">Vertical-tangent diagnostic</text><line class="grid" x1="70" y1="365.0" x2="780" y2="365.0"/><text x="62" y="369.0" text-anchor="end" font-size="11">-0.93</text><line class="grid" x1="70" y1="301.0" x2="780" y2="301.0"/><text x="62" y="305.0" text-anchor="end" font-size="11">-0.71</text><line class="grid" x1="70" y1="237.0" x2="780" y2="237.0"/><text x="62" y="241.0" text-anchor="end" font-size="11">-0.48</text><line class="grid" x1="70" y1="173.0" x2="780" y2="173.0"/><text x="62" y="177.0" text-anchor="end" font-size="11">-0.26</text><line class="grid" x1="70" y1="109.0" x2="780" y2="109.0"/><text x="62" y="113.0" text-anchor="end" font-size="11">-0.03</text><line class="grid" x1="70" y1="45.0" x2="780" y2="45.0"/><text x="62" y="49.0" text-anchor="end" font-size="11">0.20</text><line class="grid" x1="70.0" y1="45" x2="70.0" y2="365"/><text x="70.0" y="383" text-anchor="middle" font-size="11">0.0</text><line class="grid" x1="212.0" y1="45" x2="212.0" y2="365"/><text x="212.0" y="383" text-anchor="middle" font-size="11">9.2</text><line class="grid" x1="354.0" y1="45" x2="354.0" y2="365"/><text x="354.0" y="383" text-anchor="middle" font-size="11">18.5</text><line class="grid" x1="496.0" y1="45" x2="496.0" y2="365"/><text x="496.0" y="383" text-anchor="middle" font-size="11">27.7</text><line class="grid" x1="638.0" y1="45" x2="638.0" y2="365"/><text x="638.0" y="383" text-anchor="middle" font-size="11">36.9</text><line class="grid" x1="780.0" y1="45" x2="780.0" y2="365"/><text x="780.0" y="383" text-anchor="middle" font-size="11">46.1</text><line class="axis" x1="70" y1="45" x2="70" y2="365"/><line class="axis" x1="70" y1="365" x2="780" y2="365"/><line x1="70" y1="100.8" x2="780" y2="100.8" stroke="black" stroke-dasharray="6 4"/><text x="775" y="95.8" text-anchor="end" font-size="11" fill="black">vertical tangent</text><line x1="253.7" y1="45" x2="253.7" y2="365" stroke="#d62728" stroke-dasharray="4 4"/><text x="258.7" y="59" font-size="11" fill="#d62728">zero ≈ 11.95s</text><polyline class="line" points="70.0,67.1 104.9,74.3 135.5,68.3 165.2,82.5 199.2,85.5 231.4,97.4 262.6,102.1 293.0,106.0 327.3,116.7 359.0,126.0 393.9,124.1 434.2,139.4 466.7,137.2 499.1,143.7 527.6,141.5 561.2,149.5 594.9,151.9 626.3,160.8 658.8,160.1 692.1,164.0 724.4,171.5 753.1,174.9 780.0,342.9" stroke="#1f77b4"/><circle class="pt" cx="70.0" cy="67.1" r="2.5" fill="#1f77b4"/><circle class="pt" cx="104.9" cy="74.3" r="2.5" fill="#1f77b4"/><circle class="pt" cx="135.5" cy="68.3" r="2.5" fill="#1f77b4"/><circle class="pt" cx="165.2" cy="82.5" r="2.5" fill="#1f77b4"/><circle class="pt" cx="199.2" cy="85.5" r="2.5" fill="#1f77b4"/><circle class="pt" cx="231.4" cy="97.4" r="2.5" fill="#1f77b4"/><circle class="pt" cx="262.6" cy="102.1" r="2.5" fill="#1f77b4"/><circle class="pt" cx="293.0" cy="106.0" r="2.5" fill="#1f77b4"/><circle class="pt" cx="327.3" cy="116.7" r="2.5" fill="#1f77b4"/><circle class="pt" cx="359.0" cy="126.0" r="2.5" fill="#1f77b4"/><circle class="pt" cx="393.9" cy="124.1" r="2.5" fill="#1f77b4"/><circle class="pt" cx="434.2" cy="139.4" r="2.5" fill="#1f77b4"/><circle class="pt" cx="466.7" cy="137.2" r="2.5" fill="#1f77b4"/><circle class="pt" cx="499.1" cy="143.7" r="2.5" fill="#1f77b4"/><circle class="pt" cx="527.6" cy="141.5" r="2.5" fill="#1f77b4"/><circle class="pt" cx="561.2" cy="149.5" r="2.5" fill="#1f77b4"/><circle class="pt" cx="594.9" cy="151.9" r="2.5" fill="#1f77b4"/><circle class="pt" cx="626.3" cy="160.8" r="2.5" fill="#1f77b4"/><circle class="pt" cx="658.8" cy="160.1" r="2.5" fill="#1f77b4"/><circle class="pt" cx="692.1" cy="164.0" r="2.5" fill="#1f77b4"/><circle class="pt" cx="724.4" cy="171.5" r="2.5" fill="#1f77b4"/><circle class="pt" cx="753.1" cy="174.9" r="2.5" fill="#1f77b4"/><circle class="pt" cx="780.0" cy="342.9" r="2.5" fill="#1f77b4"/><line x1="80" y1="60" x2="104" y2="60" stroke="#1f77b4" stroke-width="2"/><text x="110" y="64" font-size="11">c1</text><text x="400.0" y="410" text-anchor="middle" font-size="12">Time [s]</text><text transform="translate(15 210.0) rotate(-90)" text-anchor="middle" font-size="12">c1 = dq/dz</text></svg>